<?xml version="1.0" standalone="no"?>
<!DOCTYPE svg PUBLIC "-//W3C//DTD SVG 20010904//EN"
 "http://www.w3.org/TR/2001/REC-SVG-20010904/DTD/svg10.dtd">
<svg version="1.0" xmlns="http://www.w3.org/2000/svg"
 width="16.000000pt" height="16.000000pt" viewBox="0 0 16.000000 16.000000"
 preserveAspectRatio="xMidYMid meet">
<metadata>
Created by potrace 1.11, written by Peter Selinger 2001-2013
</metadata>
<g transform="translate(0.000000,16.000000) scale(0.003125,-0.003125)"
fill="#000000" stroke="none">
<path d="M0 4511 l0 -608 40 4 c24 3 47 0 55 -7 8 -7 22 -10 30 -6 15 5 55
-25 55 -42 0 -12 91 -69 123 -77 15 -4 27 -11 27 -16 0 -4 16 -16 35 -25 20
-9 34 -19 31 -21 -2 -2 -24 4 -48 15 -23 11 -67 28 -96 37 -37 12 -56 25 -62
40 -5 13 -26 29 -50 39 -23 9 -49 23 -57 31 -19 20 -25 19 -57 -6 l-26 -20 0
-1925 0 -1924 2560 0 2560 0 0 2560 0 2560 -2560 0 -2560 0 0 -609z m1205 49
c3 -5 -1 -10 -10 -10 -9 0 -13 5 -10 10 3 6 8 10 10 10 2 0 7 -4 10 -10z m-7
-2082 c-6 -18 -28 -21 -28 -4 0 9 7 16 16 16 9 0 14 -5 12 -12z m-763 -1178
c3 -5 1 -10 -4 -10 -6 0 -11 5 -11 10 0 6 2 10 4 10 3 0 8 -4 11 -10z m3425
-1040 c0 -5 -2 -10 -4 -10 -3 0 -8 5 -11 10 -3 6 -1 10 4 10 6 0 11 -4 11 -10z"/>
</g>
</svg>
